<?xml version="1.0" encoding="UTF-8"?>
<svg viewBox="0 0 1024 1024" xmlns="http://www.w3.org/2000/svg">
  <!-- Transparent background — dark nav handles the bg -->
  <!-- Subtle green glow ring (visible on dark backgrounds) -->
  <circle cx="512" cy="512" r="480" fill="none" stroke="#00FF00" stroke-width="4" opacity="0.3"/>

  <!-- Mascot scaled from 120x120 viewBox to center in 1024x1024 -->
  <g transform="translate(128, 148) scale(6.4)">
    <!-- Left claw -->
    <path fill="#FF4D4D" d="M24 50 C20 42,14 36,10 30 C8 26,10 20,16 20 C20 20,22 24,22 28 C22 32,26 36,30 42 Z"/>
    <!-- Right claw -->
    <path fill="#FF4D4D" d="M96 50 C100 42,106 36,110 30 C112 26,110 20,104 20 C100 20,98 24,98 28 C98 32,94 36,90 42 Z"/>
    <!-- Head dome -->
    <path fill="#FF4D4D" d="M20 58 C20 40,32 32,60 32 C88 32,100 40,100 58 C100 78,88 90,60 90 C32 90,20 78,20 58 Z"/>
    <!-- Pixel sunglasses — neon green -->
    <rect fill="#00FF00" x="24" y="48" width="72" height="6"/>
    <rect fill="#00FF00" x="20" y="48" width="6" height="6"/>
    <rect fill="#00FF00" x="94" y="48" width="6" height="6"/>
    <rect fill="#00FF00" x="28" y="54" width="24" height="6"/>
    <rect fill="#00FF00" x="28" y="54" width="6" height="18"/>
    <rect fill="#00FF00" x="46" y="54" width="6" height="18"/>
    <rect fill="#00FF00" x="28" y="66" width="24" height="6"/>
    <rect fill="#080a0f" x="34" y="60" width="12" height="6"/>
    <rect fill="#00FF00" x="52" y="54" width="16" height="6"/>
    <rect fill="#00FF00" x="68" y="54" width="24" height="6"/>
    <rect fill="#00FF00" x="68" y="54" width="6" height="18"/>
    <rect fill="#00FF00" x="86" y="54" width="6" height="18"/>
    <rect fill="#00FF00" x="68" y="66" width="24" height="6"/>
    <rect fill="#080a0f" x="74" y="60" width="12" height="6"/>
  </g>
</svg>
